Coordinates
version=1
nRows=11
nColumns=36
inDegrees=yes

Units are S.I. units (second, meters, Newtons, ...)
If the header above contains a line with 'inDegrees', this indicates whether rotational values are in degrees (yes) or radians (no).

endheader
time	pelvis_tilt	pelvis_list	pelvis_rotation	pelvis_tx	pelvis_ty	pelvis_tz	hip_flexion_r	hip_adduction_r	hip_rotation_r	knee_angle_r	knee_angle_r_beta	ankle_angle_r	subtalar_angle_r	mtp_angle_r	hip_flexion_l	hip_adduction_l	hip_rotation_l	knee_angle_l	knee_angle_l_beta	ankle_angle_l	subtalar_angle_l	mtp_angle_l	lumbar_extension	lumbar_bending	lumbar_rotation	arm_flex_r	arm_add_r	arm_rot_r	elbow_flex_r	pro_sup_r	arm_flex_l	arm_add_l	arm_rot_l	elbow_flex_l	pro_sup_l
     29.83333330	      9.79350134	     -4.34364733	     -0.34180466	      0.46625626	      1.04909796	      0.77685581	    -12.46336985	      7.97476379	      5.33357124	      5.50559313	      0.09609073	      9.00020641	     -2.59882470	     -7.49999987	     13.47605570	     -6.96784885	      0.84595705	     51.96936910	      0.90703660	      5.63550619	    -12.52965974	     -7.49999987	    -21.13998992	      4.02431867	      6.50594965	      6.12224586	    -18.22200192	      1.57293648	     36.23236974	     87.06319964	      9.40258544	     -9.58118629	     22.39031175	     14.39688566	     91.48848451
     29.85000000	      9.57949180	     -4.15062210	     -0.47024180	      0.46658509	      1.04779662	      0.77673377	    -12.98129182	      7.77146168	      5.33509854	      5.41977822	      0.09459297	      8.94181774	     -2.54972964	     -7.49999987	     13.69717929	     -6.73647150	      0.44402091	     47.52777695	      0.82951619	      6.24917605	    -11.79140943	     -7.49999987	    -21.12008287	      3.62781602	      6.41401937	      6.59194657	    -18.20661518	      1.96019056	     36.67850675	     86.73575769	      9.36003062	     -9.60008894	     21.81656397	     14.56411923	     91.41645501
     29.86666670	      9.23299479	     -4.03225019	     -0.49802719	      0.46344835	      1.04634459	      0.77736484	    -13.30746230	      7.64264152	      5.33710329	      5.35868929	      0.09352677	      8.71390214	     -2.78294083	     -7.49999987	     13.88403226	     -6.58897305	      0.22717268	     42.88926561	      0.74855890	      6.54583397	    -10.95812126	     -7.49999987	    -20.93979664	      3.36058953	      6.25680776	      6.96271213	    -18.18755148	      2.24186178	     37.05934245	     86.81022621	      9.35288601	     -9.65088613	     21.34215526	     14.76852514	     92.34361454
     29.88333330	      8.78196540	     -3.96741828	     -0.56799731	      0.45896410	      1.04503724	      0.77710980	    -13.48201357	      7.53186450	      5.43094643	      5.30841996	      0.09264941	      8.46964363	     -3.08670586	     -7.49999987	     14.03834173	     -6.45281412	      0.12784528	     37.93261095	      0.66204896	      6.36605698	    -10.45184250	     -7.49999987	    -20.77902468	      3.16780345	      6.35323924	      6.97957217	    -18.13523464	      1.53592477	     37.84676882	     88.35204703	      9.38288994	     -9.55576276	     19.05286652	     15.40362978	     95.62900827
     29.90000000	      8.16525757	     -3.94644028	     -0.61516796	      0.45520029	      1.04407707	      0.77565046	    -13.43496732	      7.46022563	      5.37466301	      5.25702826	      0.09175245	      8.54869143	     -3.13402996	     -7.49999987	     14.41239958	     -6.34327260	      0.05544138	     32.91171490	      0.57441779	      6.07755789	     -9.52533162	     -7.49999987	    -20.41717681	      3.08432550	      6.26482832	      7.24595654	    -18.24648879	      2.01725043	     38.22681954	     87.27846913	      9.57900126	     -9.57647034	     18.95939393	     15.58727731	     94.63563018
     29.91666670	      7.57154663	     -3.90412462	     -0.71207337	      0.45308676	      1.04245346	      0.77400816	    -13.37916192	      7.34682479	      5.40325520	      5.19001982	      0.09058293	      8.98185460	     -3.16230427	     -7.49999987	     14.82431298	     -6.16521851	      0.11100748	     27.98158725	      0.48837083	      5.44184287	     -8.65381051	     -7.49999987	    -20.16315758	      2.98709246	      6.35539527	      7.27257624	    -18.34181173	      2.10819167	     38.94349912	     86.35004637	      9.62134169	     -9.63472132	     18.68077300	     16.67195046	     93.69513505
     29.93333330	      6.89802677	     -3.93340828	     -0.71965535	      0.45295692	      1.03975055	      0.77253724	    -13.18670079	      7.31636147	      5.18254252	      5.10605922	      0.08911755	      9.70818826	     -2.92538046	     -7.49999987	     15.49013866	     -6.07506243	      0.29065211	     23.47883334	      0.40978295	      5.07075554	     -7.22906077	     -7.49999987	    -19.61268171	      3.02875529	      6.33291278	      7.47439857	    -18.46587264	      2.40053343	     39.04073430	     86.74650618	     10.05485884	     -9.43920564	     18.40877616	     16.40936859	     94.45112082
     29.95000000	      6.35532181	     -3.95675596	     -0.76445302	      0.45455184	      1.03649768	      0.77056180	    -13.20379208	      7.21580306	      4.79232353	      4.87398900	      0.08506716	     10.55056682	     -2.24052808	     -7.49999987	     15.93890513	     -5.93132934	      0.82130973	     19.22600635	      0.33555711	      4.46849315	     -6.28767172	     -7.49999987	    -19.25925985	      3.04772563	      6.35988677	      7.42362838	    -18.57460667	      2.32766674	     39.54377730	     86.34268457	     10.14056967	     -9.41075794	     17.95730797	     17.14443969	     94.17824689
     29.96666670	      5.87336438	     -4.05929325	     -0.98201518	      0.45622455	      1.03315323	      0.76844600	    -13.29633591	      7.17450209	      5.14530686	      4.62425606	      0.08070849	     11.14476216	     -2.54437398	     -7.49999987	     16.35072420	     -6.03971718	      0.91853161	     15.54584379	      0.27132616	      4.79221624	     -4.03835170	     -7.49999987	    -18.92950846	      3.08316207	      6.49853061	      7.62036461	    -18.57058033	      2.33464691	     39.44058950	     86.40559005	     10.45166764	     -9.15384567	     17.25797856	     17.04960623	     94.44164355
     29.98333330	      5.43585542	     -4.15128576	     -1.00448803	      0.45770260	      1.03120901	      0.76606017	    -13.43093199	      7.07857803	      4.38500723	      4.41217698	      0.07700702	     12.13573455	     -1.23506108	     -7.49999987	     16.66690309	     -6.00088047	      1.71135807	     12.00045385	      0.20944743	      4.65771377	     -3.01769008	     -7.49999987	    -18.59628259	      3.18476847	      6.51963418	      7.60101657	    -18.72965031	      2.45532918	     39.38244992	     86.27701312	     10.53707133	     -8.99105628	     16.51049136	     17.46822904	     94.47876349
     30.00000000	      4.97081649	     -4.29113537	     -1.10594098	      0.45932680	      1.03031968	      0.76413324	    -13.52632021	      7.04093660	      4.09112121	      4.23612195	      0.07393428	     12.79577094	     -0.70053712	     -7.49999987	     17.02771949	     -6.08151901	      2.25737354	      8.89100465	      0.15517730	      4.73618890	     -1.74391532	     -7.49999987	    -18.18480008	      3.32791676	      6.57530546	      7.50878721	    -18.84972967	      2.53940289	     39.41511846	     85.62796766	     10.49356827	     -8.81202391	     15.86841266	     17.66530700	     93.96543578
